<svg width="120" height="30" viewBox="0 0 120 30" fill="none" xmlns="http://www.w3.org/2000/svg">
  <path d="M20.6 14.8c0-6.2-3.5-9.3-10.4-9.3H0v18.8h10.3c7 0 10.3-3.1 10.3-9.5zM5.3 9.2h4.5c3.7 0 5.5 1.9 5.5 5.7 0 3.9-1.8 5.8-5.3 5.8H5.3V9.2z" fill="#000000"/>
  <path d="M31.5 5.5c-5.6 0-9.5 4-9.5 9.8 0 5.7 3.8 9.5 9.7 9.5 5.8 0 9.5-3.8 9.5-9.7 0-5.7-3.8-9.6-9.7-9.6zm0 15.2c-2.9 0-4.6-2.3-4.6-5.5 0-3.3 1.7-5.6 4.6-5.6 2.9 0 4.7 2.3 4.7 5.6 0 3.2-1.8 5.5-4.7 5.5z" fill="#000000"/>
  <path d="M53.2 24.3h5V14c0-5.6-2.8-8.5-7.8-8.5-2.2 0-4.3.8-5.7 2.3V5.9h-5v18.4h5v-9.3c0-3.1 1.5-4.5 3.6-4.5 2 0 3.2 1.2 3.2 3.6l-.1 10.2h1.8z" fill="#000000"/>
  <path d="M71.2 5.9h-5v18.4h5V5.9z" fill="#000000"/>
  <path d="M78.9 5.9v5.1h-3.2v4h3.2v9.3h5v-9.3h3.9v-4h-3.9V5.9h-5z" fill="#000000"/>
  <path d="M94.2 24.3h5V5.9h-5v18.4z" fill="#000000"/>
  <path d="M110.9 5.5c-5.6 0-9.5 4-9.5 9.8 0 5.7 3.8 9.5 9.7 9.5 5.8 0 9.5-3.8 9.5-9.7-.1-5.7-3.9-9.6-9.7-9.6zm0 15.2c-2.9 0-4.6-2.3-4.6-5.5 0-3.3 1.7-5.6 4.6-5.6 2.9 0 4.7 2.3 4.7 5.6 0 3.2-1.8 5.5-4.7 5.5z" fill="#000000"/>
  <path d="M71.1 2.7h5V0h-5v2.7z" fill="#000000"/>
  <path d="M94.1 2.7h5V0h-5v2.7z" fill="#000000"/>
</svg> 