<svg width="100" height="30" viewBox="0 0 100 30" fill="none" xmlns="http://www.w3.org/2000/svg">
  <path d="M0 0.5H22.7V6.4H15.3V29.5H7.3V6.4H0V0.5Z" fill="#231F20"/>
  <path d="M22.8 0.5H32.1C37.3 0.5 41.7 1.2 41.7 7.3C41.7 10.2 40.2 12.3 37.5 13.1V13.2C40.8 13.7 42.1 16.3 42.1 19.5C42.1 26.4 37.7 29.5 31.3 29.5H22.8V0.5ZM30.3 12.2H31.5C33.3 12.2 34.3 11.3 34.3 9.6C34.3 7.8 33.1 7.1 31.4 7.1H30.3V12.2ZM30.3 22.8H31.8C34 22.8 35 21.5 35 19.5C35 17.5 33.8 16.3 31.5 16.3H30.3V22.8Z" fill="#231F20"/>
  <path d="M42.9 0.5H58.8V6.7H50.9V11.9H57.5V18.1H50.9V23.3H59V29.5H42.9V0.5Z" fill="#231F20"/>
  <path d="M62.5 0.5H71.4C77.1 0.5 81.2 3.2 81.2 9.4C81.2 13.5 79 16.3 74.9 16.8V17C76.3 17.2 77.4 18.5 77.8 19.8C78.8 23.1 79.3 26.7 80.4 29.5H72.4C71.8 27.3 70.9 22.5 69.6 20.4C69.1 19.4 68.5 19.1 67.2 19.1H67V29.5H59V0.5H62.5ZM67 13.7H68.5C70.3 13.7 72.1 12.9 72.1 10.9C72.1 8.9 70.9 7.9 68.9 7.9H67V13.7Z" fill="#231F20"/>
  <path d="M82.2 0.5H100V6.7H92.1V11.9H98.7V18.1H92.1V23.3H100V29.5H82.2V0.5Z" fill="#231F20"/>
</svg> 