<svg width="200" height="50" viewBox="0 0 200 50" fill="none" xmlns="http://www.w3.org/2000/svg">
  <path d="M31.3 25.5C31.3 27.1 30.5 28.6 29.2 29.5C27.9 30.4 26.3 30.6 24.8 30.1C23.3 29.6 22.1 28.4 21.6 27C21.1 25.5 21.3 23.9 22.2 22.6C23.1 21.3 24.6 20.5 26.3 20.5C27.3 20.5 28.3 20.8 29.2 21.4C30 22 30.6 22.8 31 23.7C31.2 24.3 31.3 24.9 31.3 25.5Z" fill="#0D0D0D"/>
  <path d="M54.9 14.7H45.1V35.6H40.2V14.7H30.4V10.3H54.9V14.7Z" fill="#0D0D0D"/>
  <path d="M66.5 35.9C64.1 35.9 61.9 35.1 60.1 33.6C58.3 32.1 57.2 30 57 27.6V27.3C57 25.9 57.3 24.5 57.9 23.3C58.5 22.1 59.4 21.1 60.5 20.4C61.6 19.7 62.9 19.3 64.2 19.3C66.5 19.3 68.3 20.1 69.6 21.6C70.9 23.1 71.5 25.3 71.5 28V29.5H61.7C61.8 30.5 62.3 31.5 63.1 32.2C63.9 32.9 64.9 33.3 65.9 33.3C67.6 33.3 68.9 32.6 69.8 31.1L71.2 32.8C70.5 33.8 69.6 34.6 68.5 35.1C67.4 35.7 66 35.9 66.5 35.9ZM64.2 22C63.3 22 62.5 22.3 61.9 22.9C61.3 23.5 60.9 24.3 60.7 25.2H67.3V24.9C67.2 24 66.9 23.2 66.4 22.6C65.8 22.2 65.1 22 64.2 22Z" fill="#0D0D0D"/>
  <path d="M85.1 35.6C84.9 35.2 84.7 34.6 84.6 33.9C83.5 35.2 82 35.9 80.1 35.9C78.3 35.9 76.8 35.3 75.7 34.2C74.6 33.1 74 31.7 74 30C74 27.9 74.7 26.3 76.2 25.2C77.7 24.1 79.8 23.6 82.5 23.6H84.4V22.7C84.4 21.9 84.2 21.2 83.7 20.7C83.2 20.2 82.5 19.9 81.5 19.9C80.6 19.9 79.9 20.1 79.4 20.5C78.9 20.9 78.6 21.5 78.6 22.2H74.6C74.6 21.2 74.9 20.3 75.5 19.5C76.1 18.7 76.9 18 78 17.5C79.1 17 80.3 16.7 81.6 16.7C83.6 16.7 85.2 17.2 86.4 18.2C87.6 19.2 88.2 20.6 88.3 22.4V31.2C88.3 32.7 88.5 33.9 89 34.8V35.6H85.1ZM81 32.6C81.8 32.6 82.5 32.4 83.2 32C83.9 31.6 84.3 31.1 84.6 30.5V26.2H83C80.1 26.2 78.5 27.2 78.3 29.2L78.2 29.5C78.2 30.1 78.4 30.7 78.9 31.1C79.3 32 80.1 32.6 81 32.6Z" fill="#0D0D0D"/>
  <path d="M102.8 19.6C102.1 19.5 101.4 19.5 100.7 19.6C99.1 19.6 98 20.3 97.4 21.6V35.6H93.4V17H97.2L97.3 18.9C98.2 17.4 99.5 16.7 101.1 16.7C101.7 16.7 102.3 16.8 102.7 17L102.8 19.6Z" fill="#0D0D0D"/>
  <path d="M109.2 17L109.3 19.1C110.6 17.5 112.4 16.7 114.7 16.7C116.7 16.7 118.2 17.3 119.1 18.4C120 19.5 120.5 21.2 120.5 23.5V35.6H116.5V23.6C116.5 22.4 116.2 21.5 115.7 21C115.2 20.5 114.3 20.2 113.1 20.2C111.5 20.2 110.3 20.9 109.5 22.2V35.6H105.5V17H109.2Z" fill="#0D0D0D"/>
  <path d="M124.4 26.2C124.4 23 125.1 20.5 126.4 18.7C127.7 16.9 129.5 16 131.8 16C133.7 16 135.2 16.7 136.3 18.1L136.5 17H140.1V34.9C140.1 37.2 139.3 39 137.8 40.3C136.3 41.6 134.2 42.3 131.6 42.3C130.2 42.3 128.8 42 127.5 41.5C126.2 41 125.2 40.3 124.5 39.4L126.4 36.7C127.8 38.2 129.5 39 131.4 39C132.9 39 134 38.6 134.9 37.8C135.8 37 136.2 35.8 136.2 34.3V33.3C135.1 34.6 133.6 35.2 131.8 35.2C129.5 35.2 127.7 34.3 126.4 32.5C125.1 30.7 124.4 28.2 124.4 25.1V26.2ZM128.4 25.4C128.4 27.4 128.8 28.9 129.5 30C130.2 31.1 131.2 31.6 132.5 31.6C134.2 31.6 135.4 30.9 136.2 29.5V20.8C135.4 19.4 134.2 18.7 132.6 18.7C131.3 18.7 130.2 19.2 129.5 20.3C128.8 21.4 128.4 23.1 128.4 25.4Z" fill="#0D0D0D"/>
  <path d="M154.4 35.9C152 35.9 149.8 35.1 148 33.6C146.2 32.1 145.1 30 144.9 27.6V27.3C144.9 25.9 145.2 24.5 145.8 23.3C146.4 22.1 147.3 21.1 148.4 20.4C149.5 19.7 150.8 19.3 152.1 19.3C154.4 19.3 156.2 20.1 157.5 21.6C158.8 23.1 159.4 25.3 159.4 28V29.5H149.6C149.7 30.5 150.2 31.5 151 32.2C151.8 32.9 152.8 33.3 153.8 33.3C155.5 33.3 156.8 32.6 157.7 31.1L159.1 32.8C158.4 33.8 157.5 34.6 156.4 35.1C155.3 35.7 154.9 35.9 154.4 35.9ZM152.1 22C151.2 22 150.4 22.3 149.8 22.9C149.2 23.5 148.8 24.3 148.6 25.2H155.2V24.9C155.1 24 154.8 23.2 154.3 22.6C153.7 22.2 153 22 152.1 22Z" fill="#0D0D0D"/>
  <path d="M170.8 35.6C170.6 35.2 170.4 34.6 170.3 33.9C169.2 35.2 167.7 35.9 165.8 35.9C164 35.9 162.5 35.3 161.4 34.2C160.3 33.1 159.7 31.7 159.7 30C159.7 27.9 160.4 26.3 161.9 25.2C163.4 24.1 165.5 23.6 168.2 23.6H170.1V22.7C170.1 21.9 169.9 21.2 169.4 20.7C168.9 20.2 168.2 19.9 167.2 19.9C166.3 19.9 165.6 20.1 165.1 20.5C164.6 20.9 164.3 21.5 164.3 22.2H160.3C160.3 21.2 160.6 20.3 161.2 19.5C161.8 18.7 162.6 18 163.7 17.5C164.8 17 166 16.7 167.3 16.7C169.3 16.7 170.9 17.2 172.1 18.2C173.3 19.2 173.9 20.6 174 22.4V31.2C174 32.7 174.2 33.9 174.7 34.8V35.6H170.8ZM166.7 32.6C167.5 32.6 168.2 32.4 168.9 32C169.6 31.6 170 31.1 170.3 30.5V26.2H168.7C165.8 26.2 164.2 27.2 164 29.2L163.9 29.5C163.9 30.1 164.1 30.7 164.6 31.1C165 32 165.8 32.6 166.7 32.6Z" fill="#0D0D0D"/>
</svg> 